name C:/MyDriveSym/Projects/mobilecap/Data\Session20210827_0002\mocap\ForceDataProcessed\walkingTS2_forces.mot
datacolumns 19
datarows 27
range 0.00000000 0.01300000
endheader 
time	R_ground_force_vx	R_ground_force_vy	R_ground_force_vz	R_ground_force_px	R_ground_force_py	R_ground_force_pz	R_ground_torque_x	R_ground_torque_y	R_ground_torque_z	L_ground_force_vx	L_ground_force_vy	L_ground_force_vz	L_ground_force_px	L_ground_force_py	L_ground_force_pz	L_ground_torque_x	L_ground_torque_y	L_ground_torque_z	
          0.00000000	        -64.15972400	        373.42720000	         14.27671900	          0.17954900	          0.00600000	         -0.15319800	          0.00000000	          0.45352300	          0.00000000	          0.00000000	          0.00000000	          0.00000000	          0.72580600	          0.00000000	         -0.20870300	          0.00000000	          0.00000000	          0.00000000	
          0.00050000	        -64.48277100	        374.67152000	         14.16734500	          0.17954900	          0.00600000	         -0.15319800	          0.00000000	          0.45132700	          0.00000000	          0.00000000	          0.00000000	          0.00000000	          0.72580600	          0.00000000	         -0.20870300	          0.00000000	          0.00000000	          0.00000000	
          0.00100000	        -64.80666300	        375.92008600	         14.05650100	          0.17954900	          0.00600000	         -0.15319800	          0.00000000	          0.44914700	          0.00000000	          0.00000000	          0.00000000	          0.00000000	          0.72580600	          0.00000000	         -0.20870300	          0.00000000	          0.00000000	          0.00000000	
          0.00150000	        -65.13136300	        377.17277600	         13.94417800	          0.17954900	          0.00600000	         -0.15319800	          0.00000000	          0.44698600	          0.00000000	          0.00000000	          0.00000000	          0.00000000	          0.72580600	          0.00000000	         -0.20870300	          0.00000000	          0.00000000	          0.00000000	
          0.00200000	        -65.45683600	        378.42947000	         13.83036900	          0.17976500	          0.00600000	         -0.15314900	          0.00000000	          0.44484200	          0.00000000	          0.00000000	          0.00000000	          0.00000000	          0.72580600	          0.00000000	         -0.20870300	          0.00000000	          0.00000000	          0.00000000	
          0.00250000	        -65.78304500	        379.69004500	         13.71506500	          0.17998200	          0.00600000	         -0.15309900	          0.00000000	          0.44271800	          0.00000000	          0.00000000	          0.00000000	          0.00000000	          0.72580600	          0.00000000	         -0.20870300	          0.00000000	          0.00000000	          0.00000000	
          0.00300000	        -66.10995100	        380.95437600	         13.59825800	          0.18019900	          0.00600000	         -0.15305000	          0.00000000	          0.44061400	          0.00000000	          0.00000000	          0.00000000	          0.00000000	          0.72580600	          0.00000000	         -0.20870300	          0.00000000	          0.00000000	          0.00000000	
          0.00350000	        -66.43751800	        382.22233800	         13.47994200	          0.18041600	          0.00600000	         -0.15300000	          0.00000000	          0.43853000	          0.00000000	          0.00000000	          0.00000000	          0.00000000	          0.72580600	          0.00000000	         -0.20870300	          0.00000000	          0.00000000	          0.00000000	
          0.00400000	        -66.76570800	        383.49380200	         13.36010900	          0.18063400	          0.00600000	         -0.15294900	          0.00000000	          0.43646800	          0.00000000	          0.00000000	          0.00000000	          0.00000000	          0.72580600	          0.00000000	         -0.20870300	          0.00000000	          0.00000000	          0.00000000	
          0.00450000	        -67.09448100	        384.76864000	         13.23875300	          0.18085200	          0.00600000	         -0.15289900	          0.00000000	          0.43442900	          0.00000000	          0.00000000	          0.00000000	          0.00000000	          0.72580600	          0.00000000	         -0.20870300	          0.00000000	          0.00000000	          0.00000000	
          0.00500000	        -67.42379800	        386.04672100	         13.11586500	          0.18107000	          0.00600000	         -0.15284800	          0.00000000	          0.43241300	          0.00000000	          0.00000000	          0.00000000	          0.00000000	          0.72580600	          0.00000000	         -0.20870300	          0.00000000	          0.00000000	          0.00000000	
          0.00550000	        -67.75362000	        387.32791400	         12.99144100	          0.18128800	          0.00600000	         -0.15279700	          0.00000000	          0.43042100	          0.00000000	          0.00000000	          0.00000000	          0.00000000	          0.72580600	          0.00000000	         -0.20870300	          0.00000000	          0.00000000	          0.00000000	
          0.00600000	        -68.08390800	        388.61208600	         12.86547400	          0.18150700	          0.00600000	         -0.15274600	          0.00000000	          0.42845400	          0.00000000	          0.00000000	          0.00000000	          0.00000000	          0.72580600	          0.00000000	         -0.20870300	          0.00000000	          0.00000000	          0.00000000	
          0.00650000	        -68.41462000	        389.89910500	         12.73795900	          0.18172600	          0.00600000	         -0.15269400	          0.00000000	          0.42651200	          0.00000000	          0.00000000	          0.00000000	          0.00000000	          0.72580600	          0.00000000	         -0.20870300	          0.00000000	          0.00000000	          0.00000000	
          0.00700000	        -68.74571600	        391.18883500	         12.60889000	          0.18194600	          0.00600000	         -0.15264300	          0.00000000	          0.42459800	          0.00000000	          0.00000000	          0.00000000	          0.00000000	          0.72580600	          0.00000000	         -0.20870300	          0.00000000	          0.00000000	          0.00000000	
          0.00750000	        -69.07715500	        392.48114100	         12.47826100	          0.18216600	          0.00600000	         -0.15259000	          0.00000000	          0.42271100	          0.00000000	          0.00000000	          0.00000000	          0.00000000	          0.72580600	          0.00000000	         -0.20870300	          0.00000000	          0.00000000	          0.00000000	
          0.00800000	        -69.40889700	        393.77588800	         12.34606900	          0.18238600	          0.00600000	         -0.15253800	          0.00000000	          0.42085200	          0.00000000	          0.00000000	          0.00000000	          0.00000000	          0.72580600	          0.00000000	         -0.20870300	          0.00000000	          0.00000000	          0.00000000	
          0.00850000	        -69.74089900	        395.07293900	         12.21231000	          0.18260600	          0.00600000	         -0.15248600	          0.00000000	          0.41902300	          0.00000000	          0.00000000	          0.00000000	          0.00000000	          0.72580600	          0.00000000	         -0.20870300	          0.00000000	          0.00000000	          0.00000000	
          0.00900000	        -70.07311900	        396.37215700	         12.07697800	          0.18282600	          0.00600000	         -0.15243300	          0.00000000	          0.41722400	          0.00000000	          0.00000000	          0.00000000	          0.00000000	          0.72580600	          0.00000000	         -0.20870300	          0.00000000	          0.00000000	          0.00000000	
          0.00950000	        -70.40551700	        397.67340500	         11.94007100	          0.18304700	          0.00600000	         -0.15238000	          0.00000000	          0.41545600	          0.00000000	          0.00000000	          0.00000000	          0.00000000	          0.72580600	          0.00000000	         -0.20870300	          0.00000000	          0.00000000	          0.00000000	
          0.01000000	        -70.73804800	        398.97654400	         11.80158600	          0.18326800	          0.00600000	         -0.15232600	          0.00000000	          0.41372000	          0.00000000	          0.00000000	          0.00000000	          0.00000000	          0.72580600	          0.00000000	         -0.20870300	          0.00000000	          0.00000000	          0.00000000	
          0.01050000	        -71.07067200	        400.28143600	         11.66152000	          0.18348900	          0.00600000	         -0.15227300	          0.00000000	          0.41201700	          0.00000000	          0.00000000	          0.00000000	          0.00000000	          0.72580600	          0.00000000	         -0.20870300	          0.00000000	          0.00000000	          0.00000000	
          0.01100000	        -71.40334500	        401.58794300	         11.51987100	          0.18371000	          0.00600000	         -0.15221900	          0.00000000	          0.41034900	          0.00000000	          0.00000000	          0.00000000	          0.00000000	          0.72580600	          0.00000000	         -0.20870300	          0.00000000	          0.00000000	          0.00000000	
          0.01150000	        -71.73602500	        402.89592700	         11.37663800	          0.18393100	          0.00600000	         -0.15216500	          0.00000000	          0.40871500	          0.00000000	          0.00000000	          0.00000000	          0.00000000	          0.72580600	          0.00000000	         -0.20870300	          0.00000000	          0.00000000	          0.00000000	
          0.01200000	        -72.06866700	        404.20524900	         11.23181800	          0.18415300	          0.00600000	         -0.15211000	          0.00000000	          0.40711700	          0.00000000	          0.00000000	          0.00000000	          0.00000000	          0.72580600	          0.00000000	         -0.20870300	          0.00000000	          0.00000000	          0.00000000	
          0.01250000	        -72.40123000	        405.51577000	         11.08541200	          0.18437400	          0.00600000	         -0.15205600	          0.00000000	          0.40555600	          0.00000000	          0.00000000	          0.00000000	          0.00000000	          0.72580600	          0.00000000	         -0.20870300	          0.00000000	          0.00000000	          0.00000000	
          0.01300000	        -72.73367000	        406.82735000	         10.93741900	          0.18459600	          0.00600000	         -0.15200100	          0.00000000	          0.40403200	          0.00000000	          0.00000000	          0.00000000	          0.00000000	          0.72580600	          0.00000000	         -0.20870300	          0.00000000	          0.00000000	          0.00000000	
